<svg xmlns="http://www.w3.org/2000/svg" viewBox="0 0 32 32">
  <rect width="32" height="32" rx="6" fill="#050a10"/>
  <defs>
    <linearGradient id="g1" x1="0" y1="0" x2="0.3" y2="1">
      <stop offset="0%" stop-color="#a8ffcf"/>
      <stop offset="100%" stop-color="#33c9e8"/>
    </linearGradient>
  </defs>
  <path d="M6.5 5 C 6 5, 5.6 5.6, 6 6.5 C 9 12, 12.5 18, 16.5 24.5 C 17 25.3, 18 25, 17.8 24 C 16 17.5, 12.5 11, 8 5.4 C 7.7 5, 7 4.8, 6.5 5 Z" fill="url(#g1)"/>
  <path d="M13 4 C 12.5 4, 12.1 4.6, 12.5 5.5 C 15 12, 18 18.5, 22.5 25 C 23 25.7, 24 25.3, 23.7 24.3 C 21.5 17.5, 18 11, 14.5 4.9 C 14.2 4.4, 13.5 4, 13 4 Z" fill="url(#g1)"/>
  <path d="M19.5 5 C 19 5, 18.7 5.6, 19 6.4 C 20.5 12, 22.5 17.5, 25.8 23.5 C 26.3 24.3, 27.3 23.9, 27 22.9 C 25.3 16.8, 22.8 11, 20.8 5.4 C 20.6 4.9, 20 4.7, 19.5 5 Z" fill="url(#g1)"/>
</svg>
